:SAMPLES-PER-SECOND 30
:FULLY-SPECIFIED
:DEGREES
22
root  34.85174104 36.51265422 -14.87205686 8.248793602 -5.537688732 3.507361412
lowerback  -7.783219337 -0.9625350237 -0.4920670986
upperback  -3.950330019 -0.8098250031 -3.285700083
thorax  0.240395993 -0.2554819882 -3.177229881
lowerneck  -6.636590004 -13.90970039 -11.54660034
upperneck  16.18020058 -19.05729866 10.5758009
head  8.241189957 -8.83232975 3.283590078
lclavicle  0 -4.497500157e-015 -2.743230041e-014
lhumerus  -48.90420151 29.5189991 63.47999954
lradius  0.001595117152 -6.507048965e-006 30.47370148
lwrist  4.824992743e-007 -3.790274832e-007 -28.2779007
lhand  -4.417546339e-031 -36.93280029 -10.67510033
lfingers  90 7.125020027 -90
lthumb  94.83143811 -25.50973836 101.1040897
rclavicle  0 -4.497500157e-015 -2.743230041e-014
rhumerus  -59.00640106 -29.22179985 -53.73379898
rradius  -5.16745672e-007 2.214343908e-008 58.15039825
rwrist  -0.0001011603963 -0.001600692281 -165.7030029
rhand  -1.767698182e-031 -2.816720009 -7.444779873
rfingers  -90 -7.125020027 -90
rthumb  -86.51689632 -8.188429453 -66.8607049
rfemur  -12.21623516 16.55661201 12.96558952
rtibia  -1.16349709 -0.8417726755 20.90410995
rfoot  0.3142677844 -21.66835022 -35.96905136
rtoes  4.053312101 19.60145113 -101.9271647
lfemur  -8.091200829 -16.9393177 -20.20013618
ltibia  2.092124939 -1.140443802 15.14506626
lfoot  0.7536489964 -23.42149925 37.81925583
ltoes  -8.683989937 -18.08628413 -116.1963978
23
root  34.84875236 36.51189729 -14.8776152 8.233474731 -5.529032707 3.543498039
lowerback  -7.874070168 -1.013080001 -0.4996544421
upperback  -3.906939983 -0.8752200007 -3.281339884
thorax  0.3321920037 -0.2882390022 -3.175199986
lowerneck  -6.50880003 -14.0394001 -11.55669975
upperneck  15.99800014 -19.24749756 10.62460041
head  8.186470032 -8.931570053 3.283190012
lclavicle  0 -4.497500157e-015 -2.743230041e-014
lhumerus  -48.89239883 29.56439972 63.41600037
lradius  0.001595117152 -6.507048965e-006 30.46479988
lwrist  4.824992743e-007 -3.790274832e-007 -28.32769966
lhand  -4.417598518e-031 -36.93370056 -10.70590019
lfingers  90 7.125020027 -90
lthumb  94.83841487 -25.53999318 101.1078154
rclavicle  0 -4.497500157e-015 -2.743230041e-014
rhumerus  -59.27009964 -28.98250008 -53.4632988
rradius  -5.16745672e-007 2.214343908e-008 59.78519821
rwrist  -0.0001011603963 -0.001600692281 -166.5469971
rhand  -1.767715598e-031 -2.828170061 -7.425320148
rfingers  -90 -7.125020027 -90
rthumb  -86.51129294 -8.205743465 -66.87077314
rfemur  -12.23761368 16.56960487 12.94741726
rtibia  -1.193523645 -0.8690995574 20.97257042
rfoot  0.2824349701 -21.72282219 -35.97796631
rtoes  4.077286091 19.59666582 -101.9986358
lfemur  -8.060712814 -16.98088646 -20.25432587
ltibia  2.125725031 -1.174824595 15.09751511
lfoot  0.7304185033 -23.32884789 37.79446793
ltoes  -8.701418428 -18.078123 -116.2525497
24
root  34.84397648 36.51043749 -14.88377729 8.203950882 -5.498552322 3.587678671
lowerback  -7.902579308 -1.035859942 -0.4306759238
upperback  -3.91125989 -0.909340024 -3.281409979
thorax  0.3403399885 -0.3060260117 -3.21739006
lowerneck  -6.324429989 -14.19499969 -11.63519955
upperneck  15.82970047 -19.46940041 10.67140007
head  8.137430191 -9.051429749 3.290380001
lclavicle  0 -4.497500157e-015 -2.743230041e-014
lhumerus  -48.89749908 29.55699921 63.40420151
lradius  0.001595117152 -6.507048965e-006 30.46640015
lwrist  4.824992743e-007 -3.790274832e-007 -28.32060051
lhand  -0 -36.98429871 -10.71220016
lfingers  90 7.125020027 -90
lthumb  94.8635401 -25.54429634 101.1626114
rclavicle  0 -4.497500157e-015 -2.743230041e-014
rhumerus  -59.66210175 -28.71790123 -53.02539825
rradius  -5.16745672e-007 2.214343908e-008 61.47869873
rwrist  -0.0001011603963 -0.001600692281 -167.298996
rhand  -1.767643932e-031 -2.780750036 -7.426239967
rfingers  -90 -7.125020027 -90
rthumb  -86.50287629 -8.207292591 -66.8246215
rfemur  -12.2690239 16.55891228 12.94953632
rtibia  -1.24027276 -0.8147448301 21.09565353
rfoot  0.2391348183 -21.61502457 -36.00654221
rtoes  4.077712132 19.59658051 -101.9999061
lfemur  -7.965471268 -16.96039581 -20.33539009
ltibia  2.203289509 -1.169004798 14.96931171
lfoot  0.7224080563 -23.28768539 37.77581406
ltoes  -8.718934875 -18.06989996 -116.3090097
25
root  34.84078054 36.51008306 -14.88802602 8.196038246 -5.485665798 3.602690935
lowerback  -7.868720055 -1.05467999 -0.4103092551
upperback  -3.939970016 -0.9355580211 -3.279989958
thorax  0.2901979983 -0.3190439939 -3.228760004
lowerneck  -6.123809814 -14.33590031 -11.76350021
upperneck  15.71609974 -19.67090225 10.73149967
head  8.108409882 -9.161330223 3.311840057
lclavicle  0 -4.497500157e-015 -2.743230041e-014
lhumerus  -48.94710159 29.49609947 63.41469955
lradius  0.001595117152 -6.507048965e-006 30.52009964
lwrist  4.824992743e-007 -3.790274832e-007 -28.1366024
lhand  -4.419251534e-031 -36.96220016 -10.70400047
lfingers  90 7.125020027 -90
lthumb  94.85142675 -25.53707256 101.1382397
rclavicle  0 -4.497500157e-015 -2.743230041e-014
rhumerus  -60.10309982 -28.44849777 -52.55530548
rradius  -5.16745672e-007 2.214343908e-008 63.24399948
rwrist  -0.0001011603963 -0.001600692281 -167.7799988
rhand  -3.534725302e-031 -2.586210012 -7.559510231
rfingers  -90 -7.125020027 -90
rthumb  -86.52009333 -8.094882938 -66.64269016
rfemur  -12.27820206 16.54184914 12.94377136
rtibia  -1.254718542 -0.8472797871 21.1252079
rfoot  0.2203631848 -21.68404007 -36.00548935
rtoes  4.075155514 19.59709229 -101.9922835
lfemur  -7.957833767 -17.02382088 -20.3567276
ltibia  2.217376709 -1.188809395 14.96649647
lfoot  0.7373013496 -23.24988174 37.82307053
ltoes  -8.738665583 -18.06061251 -116.3726366
26
root  34.83638313 36.51055764 -14.89141269 8.207398415 -5.482156754 3.618521929
lowerback  -7.836220264 -1.085270047 -0.4151678979
upperback  -3.946609974 -0.9781259894 -3.261590004
thorax  0.2635990083 -0.3407270014 -3.209640026
lowerneck  -5.91218996 -14.48040009 -11.90460014
upperneck  15.54889965 -19.86949921 10.75520039
head  8.057069778 -9.277739525 3.325520039
lclavicle  0 -4.497500157e-015 -2.743230041e-014
lhumerus  -49.01509857 29.47459984 63.41630173
lradius  0.001595117152 -6.507048965e-006 30.56749916
lwrist  4.824992743e-007 -3.790274832e-007 -28.06719971
lhand  -0 -36.95000076 -10.71609974
lfingers  90 7.125020027 -90
lthumb  94.84828971 -25.54945248 101.1262778
rclavicle  0 -4.497500157e-015 -2.743230041e-014
rhumerus  -60.49300003 -28.24010086 -52.00619888
rradius  -5.16745672e-007 2.214343908e-008 64.88220215
rwrist  -0.0001011603963 -0.001600692281 -168.5359955
rhand  -1.767346803e-031 -2.574810028 -7.73443985
rfingers  -90 -7.125020027 -90
rthumb  -86.58805403 -7.934849772 -66.64129338
rfemur  -12.32443047 16.55937958 12.9401865
rtibia  -1.278717041 -0.8472374678 21.17939758
rfoot  0.1940679997 -21.67790031 -36.03130722
rtoes  4.052459762 19.60162071 -101.924624
lfemur  -7.97663784 -17.01874161 -20.3637619
ltibia  2.231559992 -1.187432051 14.96506596
lfoot  0.7459763288 -23.25045967 37.81203842
ltoes  -8.717515768 -18.07056693 -116.3044346
27
root  34.83407629 36.51021221 -14.88998894 8.200906754 -5.464194775 3.634470224
lowerback  -7.821549892 -1.139089942 -0.5063226819
upperback  -3.938560009 -1.047309995 -3.205140114
thorax  0.2633579969 -0.3748269975 -3.104729891
lowerneck  -5.743249893 -14.60470009 -12.0326004
upperneck  15.3593998 -20.04300117 10.81060028
head  8.005279541 -9.37814045 3.348549843
lclavicle  0 -4.497500157e-015 -2.743230041e-014
lhumerus  -49.05649948 29.53650093 63.4129982
lradius  0.001595117152 -6.507048965e-006 30.54120064
lwrist  4.824992743e-007 -3.790274832e-007 -28.12100029
lhand  -4.418578408e-031 -36.95059967 -10.63599968
lfingers  90 7.125020027 -90
lthumb  94.83143233 -25.4707081 101.1195582
rclavicle  0 -4.497500157e-015 -2.743230041e-014
rhumerus  -60.69449997 -27.92259979 -51.48870087
rradius  -5.16745672e-007 2.214343908e-008 66.47100067
rwrist  -0.0001011603963 -0.001600692281 -169.1190033
rhand  -1.767255011e-031 -2.507760048 -7.639910221
rfingers  -90 -7.125020027 -90
rthumb  -86.5378806 -8.025251906 -66.57076452
rfemur  -12.31767368 16.60229301 12.92991924
rtibia  -1.287969232 -0.8489357829 21.18974113
rfoot  0.1770523787 -21.6730957 -36.08998108
rtoes  4.050399341 19.60203051 -101.9184823
lfemur  -7.934588432 -16.92384911 -20.40534782
ltibia  2.27750802 -1.151151657 14.9143858
lfoot  0.7575641274 -23.31909943 37.75025558
ltoes  -8.712032533 -18.07314272 -116.2867587
28
root  34.82522138 36.50794442 -14.8885757 8.147543907 -5.476948738 3.648267269
lowerback  -7.857550144 -1.171159983 -0.5215286613
upperback  -3.939249992 -1.089949965 -3.162440062
thorax  0.2816309929 -0.3960649967 -3.055809975
lowerneck  -5.638500214 -14.71990013 -12.19169998
upperneck  15.23349953 -20.20739937 10.91310024
head  7.993730068 -9.466409683 3.385720015
lclavicle  0 -4.497500157e-015 -2.743230041e-014
lhumerus  -49.10889816 29.68149948 63.36380005
lradius  0.001595117152 -6.507048965e-006 30.49070168
lwrist  4.824992743e-007 -3.790274832e-007 -28.3083992
lhand  -4.420691827e-031 -36.98699951 -10.59319973
lfingers  90 7.125020027 -90
lthumb  94.83928472 -25.42742386 101.1545138
rclavicle  0 -4.497500157e-015 -2.743230041e-014
rhumerus  -60.98669815 -27.77550125 -50.88799667
rradius  -5.16745672e-007 2.214343908e-008 68.11589813
rwrist  -0.0001011603963 -0.001600692281 -169.7339935
rhand  -1.767014456e-031 -2.322849989 -7.412879944
rfingers  -90 -7.125020027 -90
rthumb  -86.41200974 -8.243015807 -66.37767088
rfemur  -12.2416172 16.5848465 12.95180702
rtibia  -1.291109324 -0.8577979803 21.17692184
rfoot  0.1869887412 -21.70555687 -36.06809998
rtoes  4.076469224 19.59682935 -101.9962003
lfemur  -7.823505878 -16.92259216 -20.45971107
ltibia  2.338885546 -1.16961813 14.84607029
lfoot  0.7670261264 -23.25655746 37.7574501
ltoes  -8.685216531 -18.08571043 -116.2003489
